<svg width="33" height="33" viewBox="0 0 33 33" fill="none" xmlns="http://www.w3.org/2000/svg">
<path id="Vector" d="M14.7811 31.5875C14.4416 31.2073 14.056 30.7754 13.7626 30.7184C13.2886 30.7385 12.8288 30.8863 12.4318 31.1462L12.4413 31.1394C11.9619 31.4211 11.4274 31.5961 10.8742 31.6527L10.8579 31.654H10.8443C10.6735 31.6527 10.5044 31.619 10.346 31.5549L10.3541 31.5576C9.68733 31.2806 9.4171 30.5093 9.15908 29.7624C9.05551 29.3127 8.84231 28.8956 8.53848 28.5483L8.5412 28.551C8.30637 28.4369 8.04473 28.3895 7.7848 28.4139H7.79023C7.59196 28.4139 7.38284 28.4261 7.17371 28.4383C6.94647 28.4537 6.72467 28.4619 6.50829 28.4628C6.25064 28.4869 5.99078 28.4599 5.74355 28.3835C5.49632 28.307 5.26659 28.1826 5.06747 28.0174L5.07019 28.0201C4.85684 27.7153 4.70975 27.3692 4.63841 27.0041C4.56707 26.6389 4.57306 26.2629 4.656 25.9003L4.65329 25.9179C4.73262 25.4535 4.69339 24.9766 4.53922 24.5314L4.54465 24.5518C4.20362 24.2521 3.79418 24.0409 3.35234 23.9366L3.33333 23.9325C2.58644 23.6732 1.81239 23.4043 1.53807 22.7375C1.45938 22.3779 1.45654 22.0058 1.52972 21.645C1.60291 21.2842 1.75052 20.9427 1.96312 20.6421L1.95769 20.6503C2.20579 20.252 2.3492 19.7975 2.37459 19.329V19.3222C2.31756 19.0275 1.88572 18.6432 1.50548 18.3037C0.910684 17.7768 0.296875 17.2295 0.296875 16.4976C0.296875 15.7656 0.910684 15.2184 1.50412 14.6874C1.88436 14.3479 2.3162 13.9622 2.37323 13.6689C2.34579 13.1958 2.1986 12.7374 1.94547 12.3367L1.95226 12.3476C1.74002 12.0449 1.59351 11.7011 1.52218 11.3383C1.45084 10.9756 1.45626 10.6019 1.53807 10.2413L1.53536 10.259C1.81239 9.59223 2.58372 9.32199 3.33061 9.06397C3.80047 8.95398 4.20923 8.73806 4.54465 8.44202L4.54193 8.44473C4.69648 8.00043 4.73298 7.5236 4.64786 7.06095L4.65057 7.07724C4.57062 6.7153 4.56676 6.3407 4.63923 5.97719C4.7117 5.61367 4.85892 5.26919 5.07155 4.96558L5.06611 4.97372C5.26615 4.8089 5.49675 4.68519 5.7447 4.60968C5.99265 4.53418 6.25306 4.50837 6.51101 4.53374H6.50286C6.72014 4.53374 6.94421 4.54596 7.16827 4.55818C7.3774 4.5704 7.58653 4.58262 7.7848 4.58262C8.04588 4.60668 8.30855 4.55828 8.54391 4.44275L8.53576 4.44683C8.82773 4.11276 9.04365 3.70537 9.14957 3.25452L9.15365 3.2355C9.41438 2.48861 9.68326 1.71456 10.3487 1.44025C10.5038 1.37516 10.6707 1.3428 10.8389 1.34519H10.8538H10.8525C11.4446 1.4063 11.9823 1.58963 12.4563 1.86937L12.4373 1.85987C12.8293 2.11768 13.2843 2.2637 13.7531 2.2822H13.7586C14.0533 2.22516 14.4376 1.79332 14.7771 1.41309C15.3121 0.816934 15.8607 0.203125 16.5927 0.203125C17.3246 0.203125 17.8719 0.816934 18.4029 1.41173C18.7424 1.79197 19.128 2.22381 19.4214 2.28084C19.8953 2.25896 20.3548 2.11081 20.7522 1.85172L20.7413 1.85851C21.2204 1.57511 21.7558 1.40035 22.3098 1.34655L22.3261 1.34519H22.3397C22.5171 1.3461 22.6832 1.37914 22.8381 1.44432L22.8299 1.44161C23.4967 1.71864 23.7669 2.48997 24.0249 3.23686C24.1349 3.70672 24.3508 4.11412 24.6455 4.4509L24.6428 4.44818C24.8781 4.56228 25.1404 4.60882 25.4006 4.58262H25.3951C25.5934 4.58262 25.8025 4.5704 26.0117 4.55954C26.2371 4.54732 26.4625 4.5351 26.6771 4.5351C26.9349 4.51084 27.1951 4.5377 27.4425 4.61413C27.69 4.69056 27.92 4.81507 28.1193 4.98051L28.1165 4.9778C28.3297 5.28267 28.4765 5.62883 28.5476 5.99395C28.6187 6.35907 28.6125 6.73504 28.5294 7.09761L28.5321 7.07996C28.4526 7.54445 28.4923 8.02151 28.6475 8.46646L28.6421 8.44745C28.9748 8.74077 29.3835 8.95669 29.8344 9.06126L29.8534 9.06533C30.6003 9.32606 31.3743 9.59494 31.6486 10.2604C31.7267 10.6199 31.7293 10.9918 31.6564 11.3524C31.5835 11.7131 31.4366 12.0547 31.225 12.3557L31.2304 12.3476C30.9816 12.7428 30.8368 13.1945 30.8094 13.6607V13.6689C30.8665 13.9636 31.2983 14.3479 31.6785 14.6874C32.2774 15.2211 32.8912 15.7683 32.8912 16.5003C32.8912 17.2322 32.2774 17.7809 31.6826 18.3118C31.3024 18.6513 30.8705 19.0357 30.8135 19.3303C30.8434 19.8233 30.9968 20.2755 31.2413 20.6639L31.2345 20.6517C31.4465 20.9542 31.5929 21.2978 31.6643 21.6603C31.7356 22.0228 31.7303 22.3962 31.6486 22.7565L31.6514 22.7389C31.3757 23.407 30.603 23.6759 29.8561 23.9339C29.4061 24.0373 28.9889 24.2511 28.6421 24.5559L28.6448 24.5531C28.4902 24.9974 28.4537 25.4743 28.5389 25.9369L28.5362 25.9206C28.6159 26.2824 28.6197 26.6567 28.5472 27.02C28.4747 27.3832 28.3276 27.7275 28.1152 28.0309L28.1206 28.0228C27.921 28.1879 27.6907 28.312 27.443 28.388C27.1952 28.464 26.935 28.4903 26.6771 28.4655H26.6852C26.4679 28.4655 26.2439 28.4533 26.0198 28.4411C25.8146 28.4271 25.609 28.4189 25.4033 28.4166C25.1422 28.3926 24.8795 28.4409 24.6442 28.5565L24.6523 28.5524C24.3536 28.8939 24.1429 29.3032 24.0385 29.7447L24.0344 29.7637C23.7737 30.5106 23.5048 31.2847 22.8394 31.559C22.6843 31.6241 22.5174 31.6564 22.3492 31.654H22.3342C21.7684 31.5966 21.2231 31.4173 20.7332 31.1285L20.7508 31.138C20.3586 30.8807 19.9037 30.7351 19.4349 30.717H19.4295C19.1348 30.7741 18.7505 31.2059 18.411 31.5861C17.8746 32.1809 17.3274 32.7948 16.594 32.7948C15.8607 32.7948 15.3135 32.1809 14.7811 31.5875ZM19.5775 10.1286L12.9506 22.1712C12.9317 22.2055 12.9221 22.2441 12.9227 22.2832C12.9233 22.3223 12.934 22.3606 12.9539 22.3943C12.9738 22.428 13.002 22.456 13.036 22.4755C13.0699 22.4949 13.1084 22.5052 13.1475 22.5053H14.2977C14.3378 22.506 14.3772 22.4955 14.4117 22.4752C14.4463 22.4548 14.4745 22.4253 14.4932 22.3899L21.1107 10.3446C21.1295 10.3103 21.1392 10.2717 21.1386 10.2326C21.138 10.1934 21.1272 10.1551 21.1074 10.1214C21.0875 10.0877 21.0592 10.0598 21.0253 10.0403C20.9913 10.0209 20.9529 10.0106 20.9138 10.0105H19.7744C19.7343 10.0112 19.695 10.0223 19.6605 10.0428C19.626 10.0632 19.5974 10.0937 19.5775 10.1286ZM18.6215 16.3061C18.449 16.4488 18.3102 16.6279 18.2149 16.8305C18.1196 17.033 18.0702 17.2542 18.0702 17.478V20.7386C18.0702 21.2057 18.2847 21.6226 18.6202 21.8969L18.6229 21.8996C18.9705 22.1903 19.4214 22.3654 19.9143 22.3654C20.4073 22.3654 20.8581 22.1889 21.2085 21.8969L21.2058 21.8996C21.5453 21.624 21.7598 21.2071 21.7598 20.7399V17.4808C21.7598 17.0136 21.5493 16.594 21.2193 16.3143L21.2166 16.3129C20.8723 16.0039 20.4259 15.8331 19.9632 15.8335H19.9211H19.9238H19.8817C19.4177 15.8329 18.9695 16.0019 18.6215 16.3088L18.6242 16.3075L18.6215 16.3061ZM12.8582 10.4573C12.6857 10.6 12.5469 10.779 12.4516 10.9816C12.3563 11.1842 12.3069 11.4053 12.3069 11.6292V14.8884C12.3069 15.3569 12.5201 15.7765 12.8569 16.0522L12.8596 16.0549C13.2072 16.3496 13.6594 16.5275 14.1537 16.5275C14.6481 16.5275 15.1016 16.3482 15.4506 16.0522L15.4479 16.0549C15.7901 15.7765 16.006 15.3569 16.006 14.8857V11.6346C16.006 11.1634 15.7928 10.7438 15.456 10.4641L15.4533 10.4627C15.0907 10.1538 14.6298 9.9843 14.1535 9.98455C13.6771 9.9848 13.2165 10.1548 12.8542 10.4641L12.8569 10.4613L12.8582 10.4573ZM19.6183 20.9151C19.5888 20.8921 19.5651 20.8626 19.5489 20.8289C19.5326 20.7952 19.5243 20.7583 19.5246 20.7209V17.4604C19.5246 17.3816 19.5612 17.3124 19.6169 17.2676C19.6882 17.2078 19.7778 17.1743 19.8709 17.1725H19.8885H19.8872H19.9034C19.9968 17.1736 20.0869 17.2066 20.1587 17.2662C20.188 17.2891 20.2116 17.3184 20.2279 17.3518C20.2441 17.3852 20.2525 17.4219 20.2524 17.459V20.7209C20.2527 20.7579 20.2445 20.7946 20.2285 20.828C20.2125 20.8614 20.1891 20.8907 20.1601 20.9137C20.0868 20.9735 19.9917 21.0088 19.8885 21.0088C19.7853 21.0088 19.6902 20.9735 19.6156 20.9124H19.6169L19.6183 20.9151ZM13.8604 15.0676C13.8324 15.0434 13.8096 15.0136 13.7935 14.9802C13.7774 14.9468 13.7683 14.9105 13.7667 14.8734V11.6143C13.7667 11.5355 13.8034 11.4662 13.8591 11.4201C13.9324 11.3603 14.0275 11.325 14.1307 11.325C14.2339 11.325 14.3289 11.3603 14.4036 11.4214C14.433 11.4445 14.4554 11.474 14.4717 11.5076C14.4879 11.5413 14.4962 11.5782 14.496 11.6156V14.8761C14.4946 14.9131 14.4857 14.9494 14.4698 14.9828C14.4539 15.0162 14.4314 15.046 14.4036 15.0703C14.3303 15.1301 14.2352 15.1654 14.132 15.1654C14.0288 15.1654 13.9338 15.1301 13.8591 15.069L13.8604 15.0676Z" fill="#902190"/>
</svg>
