<svg width="31" height="31" viewBox="0 0 31 31" fill="none" xmlns="http://www.w3.org/2000/svg">
<path id="Vector" d="M7.08433 30.4382H3.18107C2.49294 30.4382 1.91883 30.2081 1.45874 29.748C0.998655 29.2879 0.767617 28.7138 0.765625 28.0257V24.118H2.25941V28.0257C2.25941 28.2936 2.34555 28.5137 2.51783 28.6859C2.69012 28.8582 2.9107 28.9444 3.17958 28.9444H7.08433V30.4382ZM24.3226 30.4382V28.9444H28.2288C28.4967 28.9444 28.7168 28.8582 28.8891 28.6859C29.0614 28.5137 29.1475 28.2936 29.1475 28.0257V24.118H30.6413V28.0257C30.6413 28.7128 30.4112 29.2864 29.9512 29.7465C29.4911 30.2066 28.917 30.4372 28.2288 30.4382H24.3226ZM15.7035 24.0597C13.0415 24.0597 10.65 23.3058 8.52881 21.7981C6.40764 20.2884 4.80631 18.1891 3.72481 15.5003C4.80631 12.8115 6.40764 10.7123 8.52881 9.20254C10.65 7.69481 13.0415 6.94095 15.7035 6.94095C18.3654 6.94095 20.7569 7.69531 22.8781 9.20403C24.9993 10.7128 26.6006 12.8115 27.6821 15.5003C26.6006 18.1891 24.9993 20.2884 22.8781 21.7981C20.7569 23.3058 18.3654 24.0597 15.7035 24.0597ZM15.7035 19.7785C16.8985 19.7785 17.9108 19.3642 18.7403 18.5357C19.5699 17.7071 19.9846 16.6954 19.9846 15.5003C19.9846 14.3053 19.5699 13.293 18.7403 12.4635C17.9108 11.6339 16.8985 11.2196 15.7035 11.2206C14.5084 11.2216 13.4961 11.6359 12.6666 12.4635C11.837 13.291 11.4228 14.3033 11.4238 15.5003C11.4248 16.6973 11.839 17.7096 12.6666 18.5372C13.4941 19.3647 14.5064 19.7795 15.7035 19.7815M15.7035 18.2877C14.9277 18.2877 14.2694 18.0169 13.7287 17.4751C13.1879 16.9344 12.9175 16.2761 12.9175 15.5003C12.9175 14.7246 13.1879 14.0663 13.7287 13.5255C14.2694 12.9848 14.9277 12.7144 15.7035 12.7144C16.4792 12.7144 17.1375 12.9848 17.6782 13.5255C18.22 14.0663 18.4909 14.7246 18.4909 15.5003C18.4909 16.2761 18.22 16.9344 17.6782 17.4751C17.1375 18.0169 16.4792 18.2877 15.7035 18.2877ZM0.765625 6.8812V2.97645C0.765625 2.28832 0.996166 1.71421 1.45725 1.25412C1.91833 0.794036 2.49244 0.563496 3.17958 0.5625H7.08433V2.05628H3.17958C2.9107 2.05628 2.69012 2.14242 2.51783 2.31471C2.34555 2.48699 2.25941 2.70757 2.25941 2.97645V6.8812H0.765625ZM29.1475 6.8812V2.97645C29.1475 2.70757 29.0614 2.48699 28.8891 2.31471C28.7168 2.14242 28.4967 2.05628 28.2288 2.05628H24.3211V0.5625H28.2288C28.916 0.5625 29.4896 0.793041 29.9497 1.25412C30.4097 1.7152 30.6403 2.28931 30.6413 2.97645V6.8812H29.1475Z" fill="#902190"/>
</svg>
