<svg width="31" height="34" viewBox="0 0 31 34" fill="none" xmlns="http://www.w3.org/2000/svg">
<path id="Vector" fill-rule="evenodd" clip-rule="evenodd" d="M30.3804 23.2661C30.3804 30.1849 24.1112 33.295 15.3347 33.295C6.55829 33.295 0.289062 30.1849 0.289062 23.315C0.289062 15.7933 4.05106 11.9824 11.5727 8.17156L8.90954 3.21065C8.75064 2.96217 8.66216 2.67522 8.65353 2.38041C8.64489 2.08559 8.71643 1.79396 8.86052 1.53661C9.00461 1.27926 9.21584 1.06584 9.47169 0.919103C9.72754 0.772369 10.0184 0.697825 10.3133 0.703418H20.9452C21.2216 0.71049 21.4916 0.787776 21.7299 0.928002C21.9682 1.06823 22.1669 1.26678 22.3073 1.50498C22.4477 1.74317 22.5252 2.01318 22.5325 2.28957C22.5398 2.56597 22.4766 2.83968 22.3489 3.08493L19.0968 8.17156C26.6161 11.9312 30.3804 15.7421 30.3804 23.2661ZM10.5787 15.8352H14.4967C14.8226 15.933 15.2323 16.1146 15.5606 16.4172C15.8062 16.6402 15.9878 16.9247 16.0867 17.2413H10.581C10.4282 17.2413 10.2768 17.2715 10.1356 17.3299C9.99437 17.3884 9.86605 17.4742 9.75796 17.5823C9.64988 17.6904 9.56414 17.8187 9.50564 17.9599C9.44715 18.1011 9.41704 18.2525 9.41704 18.4053C9.41704 18.5582 9.44715 18.7095 9.50564 18.8508C9.56414 18.992 9.64988 19.1203 9.75796 19.2284C9.86605 19.3365 9.99437 19.4222 10.1356 19.4807C10.2768 19.5392 10.4282 19.5693 10.581 19.5693H15.7189C15.3189 20.0137 14.8115 20.348 14.2453 20.5401C13.5155 20.8067 12.7475 20.9537 11.9708 20.9754H11.9359C11.699 20.9756 11.4677 21.0481 11.2731 21.1833C11.0785 21.3184 10.9297 21.5097 10.8467 21.7316C10.7637 21.9536 10.7504 22.1956 10.8086 22.4252C10.8668 22.6549 10.9937 22.8614 11.1723 23.017L11.177 23.0217L11.1886 23.0287L11.2189 23.0566C11.3841 23.1968 11.5541 23.3311 11.7287 23.4594C13.7362 24.9584 16.0191 26.0477 18.4472 26.665C18.5968 26.706 18.7531 26.7167 18.9069 26.6965C19.0607 26.6762 19.2089 26.6255 19.3428 26.5471C19.4767 26.4688 19.5936 26.3645 19.6866 26.2403C19.7796 26.1162 19.8469 25.9747 19.8844 25.8242C19.922 25.6737 19.9291 25.5172 19.9053 25.3639C19.8815 25.2106 19.8273 25.0636 19.7459 24.9316C19.6645 24.7995 19.5575 24.6851 19.4312 24.595C19.305 24.5049 19.162 24.4409 19.0106 24.4068C17.5866 24.0416 16.2169 23.4905 14.9367 22.768L15.0624 22.7214C15.8492 22.4257 16.7152 21.9555 17.3903 21.1942C17.7977 20.7403 18.1167 20.1979 18.3146 19.5693H20.0885C20.3972 19.5693 20.6932 19.4467 20.9115 19.2284C21.1298 19.0101 21.2525 18.714 21.2525 18.4053C21.2525 18.0966 21.1298 17.8006 20.9115 17.5823C20.6932 17.364 20.3972 17.2413 20.0885 17.2413H18.4729C18.3993 16.7501 18.2434 16.2747 18.0119 15.8352H20.0885C20.3972 15.8352 20.6932 15.7126 20.9115 15.4943C21.1298 15.276 21.2525 14.98 21.2525 14.6713C21.2525 14.3626 21.1298 14.0665 20.9115 13.8482C20.6932 13.6299 20.3972 13.5073 20.0885 13.5073H10.581C10.2723 13.5073 9.97625 13.6299 9.75796 13.8482C9.53967 14.0665 9.41704 14.3626 9.41704 14.6713C9.41704 14.98 9.53967 15.276 9.75796 15.4943C9.97625 15.7126 10.2723 15.8352 10.581 15.8352H10.5787Z" fill="#902190"/>
</svg>
