<svg width="33" height="32" viewBox="0 0 33 32" fill="none" xmlns="http://www.w3.org/2000/svg">
<path id="Vector" d="M16.3067 0.255859C25.0022 0.255859 32.0509 7.30454 32.0509 16.0001C32.0509 24.6956 25.0022 31.7443 16.3067 31.7443C7.61118 31.7443 0.5625 24.6956 0.5625 16.0001C0.5625 7.30454 7.61118 0.255859 16.3067 0.255859ZM14.8425 9.0427C14.5513 9.04353 14.2723 9.15958 14.0663 9.36549C13.8604 9.5714 13.7444 9.85044 13.7435 10.1416V18.9285C13.7435 19.5362 14.2348 20.0274 14.8425 20.0274H23.6293C23.777 20.033 23.9244 20.0088 24.0625 19.9561C24.2006 19.9034 24.3267 19.8234 24.4331 19.7209C24.5396 19.6184 24.6243 19.4954 24.6822 19.3594C24.74 19.2234 24.7699 19.0771 24.7699 18.9293C24.7699 18.7815 24.74 18.6352 24.6822 18.4991C24.6243 18.3631 24.5396 18.2402 24.4331 18.1376C24.3267 18.0351 24.2006 17.9551 24.0625 17.9025C23.9244 17.8498 23.777 17.8255 23.6293 17.8311H15.9399V10.1416C15.939 9.85071 15.8232 9.57191 15.6176 9.36604C15.4121 9.16018 15.1334 9.04394 14.8425 9.0427Z" fill="#902190"/>
</svg>
