<svg width="103" height="103" viewBox="0 0 103 103" fill="none" xmlns="http://www.w3.org/2000/svg">
<g filter="url(#filter0_d_2211_411)">
<path d="M6.5 38.5C6.5 21.535 6.5 13.0525 11.765 7.765C17.03 2.4775 25.535 2.5 42.5 2.5H60.5C77.465 2.5 85.9475 2.5 91.235 7.765C96.5225 13.03 96.5 21.535 96.5 38.5V56.5C96.5 73.465 96.5 81.9475 91.235 87.235C85.97 92.5225 77.465 92.5 60.5 92.5H42.5C25.535 92.5 17.0525 92.5 11.765 87.235C6.4775 81.97 6.5 73.465 6.5 56.5V38.5Z" fill="white"/>
</g>
<path d="M43.375 32.375C43.375 30.2201 44.231 28.1535 45.7548 26.6298C47.2785 25.106 49.3451 24.25 51.5 24.25C53.6549 24.25 55.7215 25.106 57.2452 26.6298C58.769 28.1535 59.625 30.2201 59.625 32.375C59.625 34.5299 58.769 36.5965 57.2452 38.1202C55.7215 39.644 53.6549 40.5 51.5 40.5C49.3451 40.5 47.2785 39.644 45.7548 38.1202C44.231 36.5965 43.375 34.5299 43.375 32.375ZM33.375 29.25C31.5516 29.25 29.803 29.9743 28.5136 31.2636C27.2243 32.553 26.5 34.3016 26.5 36.125C26.5 37.9484 27.2243 39.697 28.5136 40.9864C29.803 42.2757 31.5516 43 33.375 43C35.1984 43 36.947 42.2757 38.2364 40.9864C39.5257 39.697 40.25 37.9484 40.25 36.125C40.25 34.3016 39.5257 32.553 38.2364 31.2636C36.947 29.9743 35.1984 29.25 33.375 29.25ZM69.625 29.25C67.8016 29.25 66.053 29.9743 64.7636 31.2636C63.4743 32.553 62.75 34.3016 62.75 36.125C62.75 37.9484 63.4743 39.697 64.7636 40.9864C66.053 42.2757 67.8016 43 69.625 43C71.4484 43 73.197 42.2757 74.4864 40.9864C75.7757 39.697 76.5 37.9484 76.5 36.125C76.5 34.3016 75.7757 32.553 74.4864 31.2636C73.197 29.9743 71.4484 29.25 69.625 29.25ZM44.3125 44.25C43.2351 44.25 42.2017 44.678 41.4399 45.4399C40.678 46.2017 40.25 47.2351 40.25 48.3125V58C40.25 60.9837 41.4353 63.8452 43.545 65.9549C45.6548 68.0647 48.5163 69.25 51.5 69.25C54.4837 69.25 57.3452 68.0647 59.4549 65.9549C61.5647 63.8452 62.75 60.9837 62.75 58V48.3125C62.75 47.2351 62.322 46.2017 61.5601 45.4399C60.7983 44.678 59.7649 44.25 58.6875 44.25H44.3125ZM37.94 46.7375C37.8142 47.2425 37.7508 47.7675 37.75 48.3125V58C37.7481 60.0513 38.206 62.077 39.0901 63.9281C39.9742 65.7791 41.262 67.4085 42.8587 68.6963C42.6696 68.7588 42.4779 68.8154 42.2838 68.8662C40.8567 69.2489 39.3682 69.3467 37.9034 69.154C36.4385 68.9614 35.026 68.4821 33.7464 67.7435C32.4667 67.0049 31.3452 66.0215 30.4456 64.8494C29.5461 63.6774 28.8862 62.3396 28.5038 60.9125L26.6425 53.97C26.5045 53.4546 26.4694 52.9172 26.5391 52.3882C26.6089 51.8593 26.7821 51.3493 27.049 50.8873C27.3158 50.4253 27.6711 50.0204 28.0944 49.6958C28.5177 49.3711 29.0009 49.133 29.5163 48.995L37.94 46.7375ZM60.14 68.6963C61.737 67.4086 63.025 65.7793 63.9093 63.9282C64.7936 62.0772 65.2518 60.0514 65.25 58V48.3125C65.2483 47.7675 65.185 47.2425 65.06 46.7375L73.4825 48.9937C74.5231 49.2726 75.4103 49.9534 75.949 50.8864C76.4877 51.8194 76.6337 52.9281 76.355 53.9688L74.495 60.9112C74.0996 62.3871 73.4078 63.7671 72.4616 64.9668C71.5154 66.1665 70.3348 67.1609 68.9917 67.8894C67.6486 68.6179 66.1711 69.0651 64.6495 69.2038C63.1279 69.3425 61.5927 69.1698 60.14 68.6963Z" fill="url(#paint0_linear_2211_411)"/>
<defs>
<filter id="filter0_d_2211_411" x="0.5375" y="0.78936" width="101.925" height="101.925" filterUnits="userSpaceOnUse" color-interpolation-filters="sRGB">
<feFlood flood-opacity="0" result="BackgroundImageFix"/>
<feColorMatrix in="SourceAlpha" type="matrix" values="0 0 0 0 0 0 0 0 0 0 0 0 0 0 0 0 0 0 127 0" result="hardAlpha"/>
<feOffset dy="4.25186"/>
<feGaussianBlur stdDeviation="2.98125"/>
<feComposite in2="hardAlpha" operator="out"/>
<feColorMatrix type="matrix" values="0 0 0 0 0 0 0 0 0 0 0 0 0 0 0 0 0 0 0.19 0"/>
<feBlend mode="normal" in2="BackgroundImageFix" result="effect1_dropShadow_2211_411"/>
<feBlend mode="normal" in="SourceGraphic" in2="effect1_dropShadow_2211_411" result="shape"/>
</filter>
<linearGradient id="paint0_linear_2211_411" x1="51.5" y1="24.25" x2="51.5" y2="69.2503" gradientUnits="userSpaceOnUse">
<stop stop-color="#902190"/>
<stop offset="1" stop-color="#DD71DD"/>
</linearGradient>
</defs>
</svg>
