<svg width="103" height="103" viewBox="0 0 103 103" fill="none" xmlns="http://www.w3.org/2000/svg">
<g filter="url(#filter0_d_2211_402)">
<path d="M6.5 38.5C6.5 21.535 6.5 13.0525 11.765 7.765C17.03 2.4775 25.535 2.5 42.5 2.5H60.5C77.465 2.5 85.9475 2.5 91.235 7.765C96.5225 13.03 96.5 21.535 96.5 38.5V56.5C96.5 73.465 96.5 81.9475 91.235 87.235C85.97 92.5225 77.465 92.5 60.5 92.5H42.5C25.535 92.5 17.0525 92.5 11.765 87.235C6.4775 81.97 6.5 73.465 6.5 56.5V38.5Z" fill="white"/>
</g>
<path d="M71.5 28H31.5C28.75 28 26.525 30.25 26.525 33L26.5 63C26.5 65.75 28.75 68 31.5 68H71.5C74.25 68 76.5 65.75 76.5 63V33C76.5 30.25 74.25 28 71.5 28ZM71.5 38L51.5 50.5L31.5 38V33L51.5 45.5L71.5 33V38Z" fill="url(#paint0_linear_2211_402)"/>
<defs>
<filter id="filter0_d_2211_402" x="0.5375" y="0.78936" width="101.925" height="101.925" filterUnits="userSpaceOnUse" color-interpolation-filters="sRGB">
<feFlood flood-opacity="0" result="BackgroundImageFix"/>
<feColorMatrix in="SourceAlpha" type="matrix" values="0 0 0 0 0 0 0 0 0 0 0 0 0 0 0 0 0 0 127 0" result="hardAlpha"/>
<feOffset dy="4.25186"/>
<feGaussianBlur stdDeviation="2.98125"/>
<feComposite in2="hardAlpha" operator="out"/>
<feColorMatrix type="matrix" values="0 0 0 0 0 0 0 0 0 0 0 0 0 0 0 0 0 0 0.19 0"/>
<feBlend mode="normal" in2="BackgroundImageFix" result="effect1_dropShadow_2211_402"/>
<feBlend mode="normal" in="SourceGraphic" in2="effect1_dropShadow_2211_402" result="shape"/>
</filter>
<linearGradient id="paint0_linear_2211_402" x1="51.5" y1="28" x2="51.5" y2="68" gradientUnits="userSpaceOnUse">
<stop stop-color="#902190"/>
<stop offset="1" stop-color="#DD71DD"/>
</linearGradient>
</defs>
</svg>
