<svg width="103" height="103" viewBox="0 0 103 103" fill="none" xmlns="http://www.w3.org/2000/svg">
<g filter="url(#filter0_d_2211_420)">
<path d="M6.5 38.5C6.5 21.535 6.5 13.0525 11.765 7.765C17.03 2.4775 25.535 2.5 42.5 2.5H60.5C77.465 2.5 85.9475 2.5 91.235 7.765C96.5225 13.03 96.5 21.535 96.5 38.5V56.5C96.5 73.465 96.5 81.9475 91.235 87.235C85.97 92.5225 77.465 92.5 60.5 92.5H42.5C25.535 92.5 17.0525 92.5 11.765 87.235C6.4775 81.97 6.5 73.465 6.5 56.5V38.5Z" fill="white"/>
</g>
<path d="M51.2604 21C48.1662 21 45.1988 22.2292 43.0108 24.4171C40.8229 26.605 39.5938 29.5725 39.5938 32.6667H45.4271C45.8139 32.6667 46.1848 32.8203 46.4583 33.0938C46.7318 33.3673 46.8854 33.7382 46.8854 34.125C46.8854 34.5118 46.7318 34.8827 46.4583 35.1562C46.1848 35.4297 45.8139 35.5833 45.4271 35.5833H39.5938V38.5H45.4271C45.8139 38.5 46.1848 38.6536 46.4583 38.9271C46.7318 39.2006 46.8854 39.5716 46.8854 39.9583C46.8854 40.3451 46.7318 40.716 46.4583 40.9895C46.1848 41.263 45.8139 41.4167 45.4271 41.4167H39.5938V44.3333H45.4271C45.8139 44.3333 46.1848 44.487 46.4583 44.7605C46.7318 45.034 46.8854 45.4049 46.8854 45.7917C46.8854 46.1784 46.7318 46.5494 46.4583 46.8229C46.1848 47.0964 45.8139 47.25 45.4271 47.25H39.5938C39.5938 50.3442 40.8229 53.3117 43.0108 55.4996C45.1988 57.6875 48.1662 58.9167 51.2604 58.9167C54.3546 58.9167 57.3221 57.6875 59.51 55.4996C61.6979 53.3117 62.9271 50.3442 62.9271 47.25H57.0938C56.707 47.25 56.336 47.0964 56.0626 46.8229C55.7891 46.5494 55.6354 46.1784 55.6354 45.7917C55.6354 45.4049 55.7891 45.034 56.0626 44.7605C56.336 44.487 56.707 44.3333 57.0938 44.3333H62.9271V41.4167H57.0938C56.707 41.4167 56.336 41.263 56.0626 40.9895C55.7891 40.716 55.6354 40.3451 55.6354 39.9583C55.6354 39.5716 55.7891 39.2006 56.0626 38.9271C56.336 38.6536 56.707 38.5 57.0938 38.5H62.9271V35.5833H57.0938C56.707 35.5833 56.336 35.4297 56.0626 35.1562C55.7891 34.8827 55.6354 34.5118 55.6354 34.125C55.6354 33.7382 55.7891 33.3673 56.0626 33.0938C56.336 32.8203 56.707 32.6667 57.0938 32.6667H62.9271C62.9271 29.5725 61.6979 26.605 59.51 24.4171C57.3221 22.2292 54.3546 21 51.2604 21Z" fill="url(#paint0_linear_2211_420)"/>
<path fill-rule="evenodd" clip-rule="evenodd" d="M49.8021 70.5846V63.293H52.7188V70.5846H49.8021ZM39.5938 72.043C39.5938 71.6562 39.7474 71.2853 40.0209 71.0118C40.2944 70.7383 40.6653 70.5846 41.0521 70.5846H61.4688C61.8555 70.5846 62.2265 70.7383 62.4999 71.0118C62.7734 71.2853 62.9271 71.6562 62.9271 72.043C62.9271 72.4297 62.7734 72.8007 62.4999 73.0742C62.2265 73.3477 61.8555 73.5013 61.4688 73.5013H41.0521C40.6653 73.5013 40.2944 73.3477 40.0209 73.0742C39.7474 72.8007 39.5938 72.4297 39.5938 72.043Z" fill="url(#paint1_linear_2211_420)"/>
<path fill-rule="evenodd" clip-rule="evenodd" d="M34.4301 52.236C34.7902 52.0959 35.1912 52.1044 35.545 52.2597C35.8988 52.415 36.1766 52.7044 36.3172 53.0643C37.4671 56.0211 39.468 58.5706 42.0668 60.3903C44.6657 62.21 47.7457 63.2183 50.9175 63.2876C54.0894 63.3569 57.2105 62.4841 59.8863 60.7797C62.5622 59.0752 64.6725 56.6156 65.9505 53.7118C66.0277 53.5364 66.1387 53.3779 66.2771 53.2453C66.4155 53.1128 66.5787 53.0088 66.7573 52.9393C66.936 52.8699 67.1265 52.8363 67.3181 52.8404C67.5097 52.8446 67.6986 52.8865 67.8741 52.9637C68.0495 53.0408 68.208 53.1518 68.3405 53.2903C68.4731 53.4287 68.577 53.5919 68.6465 53.7705C68.716 53.9491 68.7496 54.1397 68.7454 54.3313C68.7412 54.5229 68.6994 54.7118 68.6222 54.8872C67.1122 58.3196 64.6183 61.2272 61.4558 63.2421C58.2932 65.2571 54.6042 66.2889 50.8552 66.2071C47.1062 66.1253 43.4657 64.9336 40.3941 62.7826C37.3224 60.6316 34.9577 57.6181 33.5989 54.123C33.4589 53.7626 33.4679 53.3613 33.6237 53.0074C33.7796 52.6535 34.0697 52.376 34.4301 52.236Z" fill="url(#paint2_linear_2211_420)"/>
<defs>
<filter id="filter0_d_2211_420" x="0.5375" y="0.78936" width="101.925" height="101.925" filterUnits="userSpaceOnUse" color-interpolation-filters="sRGB">
<feFlood flood-opacity="0" result="BackgroundImageFix"/>
<feColorMatrix in="SourceAlpha" type="matrix" values="0 0 0 0 0 0 0 0 0 0 0 0 0 0 0 0 0 0 127 0" result="hardAlpha"/>
<feOffset dy="4.25186"/>
<feGaussianBlur stdDeviation="2.98125"/>
<feComposite in2="hardAlpha" operator="out"/>
<feColorMatrix type="matrix" values="0 0 0 0 0 0 0 0 0 0 0 0 0 0 0 0 0 0 0.19 0"/>
<feBlend mode="normal" in2="BackgroundImageFix" result="effect1_dropShadow_2211_420"/>
<feBlend mode="normal" in="SourceGraphic" in2="effect1_dropShadow_2211_420" result="shape"/>
</filter>
<linearGradient id="paint0_linear_2211_420" x1="51.2604" y1="21" x2="51.2604" y2="58.9167" gradientUnits="userSpaceOnUse">
<stop stop-color="#902190"/>
<stop offset="1" stop-color="#DD71DD"/>
</linearGradient>
<linearGradient id="paint1_linear_2211_420" x1="51.2604" y1="63.293" x2="51.2604" y2="73.5013" gradientUnits="userSpaceOnUse">
<stop stop-color="#902190"/>
<stop offset="1" stop-color="#DD71DD"/>
</linearGradient>
<linearGradient id="paint2_linear_2211_420" x1="51.1229" y1="52.1367" x2="51.1229" y2="66.2116" gradientUnits="userSpaceOnUse">
<stop stop-color="#902190"/>
<stop offset="1" stop-color="#DD71DD"/>
</linearGradient>
</defs>
</svg>
